<svg id="Elegance" xmlns="http://www.w3.org/2000/svg" viewBox="0 0 560 366.37"><defs><style>.cls-1{fill:#253a44;}.cls-2{fill:#71b393;}.cls-3{fill:#639c81;}.cls-4{fill:#acdac2;}.cls-5{fill:#fff;}.cls-6{fill:#e6e6e6;}.cls-7{fill:#474446;}.cls-8{fill:#f2f2f2;}</style></defs><title>Artboard 1</title><polygon class="cls-1" points="231.83 204.7 89.31 303.95 133.34 294.98 100.08 312.46 162.43 297.19 231.83 204.7"/><polygon class="cls-2" points="234.58 198.14 82.73 263.18 68.39 280.75 116.09 277.75 234.58 198.14"/><polygon class="cls-1" points="27.17 92.69 106.95 119.54 246.42 143.1 248.11 123.78 149.27 84.69 67.35 93.85 27.17 92.69"/><polygon class="cls-3" points="11.53 63.87 175.09 58.94 245.91 105.99 243.07 122.22 151.43 82.28 34.62 87.69 11.53 63.87"/><path class="cls-2" d="M233.93,195.48,83.62,218.66l-41,21.57s43.16,16.61,43.09,15S233.93,195.48,233.93,195.48Z"/><polygon class="cls-3" points="51.77 212.9 111.31 124.14 239.35 149.1 231.39 167.22 126.48 149.31 51.77 212.9"/><polygon class="cls-4" points="233.44 193.5 64.26 237.6 142.99 238.38 102.74 276.68 233.44 193.5"/><polygon class="cls-4" points="226.69 209.37 138.64 303.01 178.81 284.25 226.69 209.37"/><polygon class="cls-3" points="151.7 86.32 247.71 128.35 125.15 118.78 151.7 86.32"/><polygon class="cls-4" points="151.43 82.28 175.09 58.94 245.91 105.99 243.07 122.22 151.43 82.28"/><polygon class="cls-1" points="25.04 99.54 103.48 127.33 30.66 114.33 25.04 99.54"/><polygon class="cls-4" points="95.92 17.74 145.56 48.87 87.11 37 95.92 17.74"/><polygon class="cls-4" points="14.16 273.55 71.17 260.02 21.71 293.34 14.16 273.55"/><polygon class="cls-4" points="82.03 191.6 129.88 157.79 96.41 207.16 82.03 191.6"/><polygon class="cls-4" points="111.31 124.14 126.48 149.31 51.77 212.9 111.31 124.14"/><polygon class="cls-2" points="306.81 209.71 458.66 274.75 473.01 292.32 425.3 289.32 306.81 209.71"/><polygon class="cls-1" points="263.32 122.22 352.41 58.17 547.38 55.29 516.67 82.19 456.97 96.31 299.48 160.89 263.32 122.22"/><polygon class="cls-3" points="529.87 75.44 366.31 70.5 295.49 117.56 298.32 133.78 389.97 93.85 506.78 99.25 529.87 75.44"/><polygon class="cls-2" points="315.36 177.27 415.97 164.75 481.75 178.71 536.59 207.11 469.51 208.44 307.95 205.06 315.36 177.27"/><path class="cls-2" d="M307.47,207l150.31,23.18,41,21.57s-43.16,16.61-43.09,15S307.47,207,307.47,207Z"/><polygon class="cls-3" points="489.63 224.46 430.08 135.7 302.04 160.66 310.01 178.79 414.92 160.88 489.63 224.46"/><polygon class="cls-4" points="307.95 205.06 477.13 249.16 398.4 249.95 438.65 288.24 307.95 205.06"/><polygon class="cls-4" points="310.93 210.72 409.2 277.13 440.19 302 397.1 302.04 310.93 210.72"/><path class="cls-4" d="M296.27,218.46s75.9,82.58,77.49,84.15,34.79,8.52,34.79,8.52L368,316.32Z"/><polygon class="cls-1" points="287.29 205.06 366.56 316.78 331.65 303.4 287.29 205.06"/><polygon class="cls-3" points="389.7 97.88 293.69 139.91 416.25 130.34 389.7 97.88"/><polygon class="cls-4" points="507.16 98.83 529.87 75.44 366.31 70.5 385.64 95.45 507.16 98.83"/><polygon class="cls-4" points="526.64 128.66 432.76 125.12 515.44 140.42 526.64 128.66"/><polygon class="cls-3" points="450.5 18.49 400.86 49.62 459.31 37.76 450.5 18.49"/><polygon class="cls-2" points="468.7 326.74 411.69 313.22 461.15 346.54 468.7 326.74"/><polygon class="cls-4" points="430.08 135.7 414.13 160.87 302.04 159.81 430.08 135.7"/><polygon class="cls-4" points="437.86 207.77 412.68 165.53 314.75 177.09 307.47 207.04 437.86 207.77"/><g id="Layer_6" data-name="Layer 6"><polygon class="cls-1" points="395.35 189.28 304.65 94.92 220.63 95.07 131.28 190.42 216.43 304.28 269.15 324.31 321.89 299.51 395.35 189.28"/><polygon class="cls-5" points="231.13 117 147.34 190.4 225.74 298.6 269.91 321.35 313 292.98 379.8 189.51 293.07 113.43 231.13 117"/><polygon class="cls-6" points="379.8 189.65 313 293.12 271.06 320.73 271.06 114.84 293.06 113.57 379.8 189.65"/><path class="cls-1" d="M206.64,79.14S228.55,95,262,95c27.7,0,62.43-17.47,62.43-17.47l-19.6,39.31H220.63Z"/><polygon class="cls-7" points="244.93 116 225.1 286.6 269.3 324.31 310.38 286.61 285.63 116 244.93 116"/><polygon class="cls-3" points="241.54 160.06 267.74 185.15 289.74 159.41 292.96 181.73 267.62 211.61 239 181.73 241.54 160.06"/><polygon class="cls-4" points="238.75 182.52 266.29 212.08 266.31 237.74 231.74 249.98 238.75 182.52"/><polygon class="cls-4" points="293.12 182.47 268.81 212.08 268.81 237.61 302.25 249.59 293.12 182.47"/><polygon class="cls-3" points="231.74 251.02 226.83 286.6 268.81 299.61 308.85 286.6 302.25 251.02 267.74 239.02 231.74 251.02"/><path class="cls-6" d="M205.08,87.55c0,.63-20.51-3.15-20.51-3.15l-37.23,106L252.21,117Z"/><path class="cls-5" d="M319.2,86.2c0,.63,20.51-3.15,20.51-3.15L379.8,189.51l-106-69.87Z"/><polygon class="cls-3" points="267.44 179.7 232.29 155.62 244.85 116.95 285.5 116.95 298.06 155.62 267.44 179.7"/><polygon class="cls-4" points="244.93 116 285.5 116.95 292.96 143.89 266.68 155.21 237.56 142.97 244.93 116"/><path class="cls-5" d="M204.21,79.66c0,.63-20.51-3.15-20.51-3.15l-37.23,106L252.21,117Z"/><path class="cls-8" d="M325.79,81.59c0,.63,20.51-3.15,20.51-3.15l37.23,106L277.43,117Z"/><polygon class="cls-4" points="228.97 288.24 268.07 303.01 306.3 288.45 269.2 322.64 228.97 288.24"/><polygon class="cls-1" points="312.04 204.97 348.91 204.76 331.27 207 312.04 204.97"/><polygon class="cls-4" points="230.51 268.91 227.9 285.31 268.33 299.46 308.85 286.6 305.33 267.64 230.51 268.91"/></g></svg>