<svg id="Fast" xmlns="http://www.w3.org/2000/svg" viewBox="0 0 560 366.37"><defs><style>.cls-1{fill:#074d5b;}.cls-2{fill:#253a44;}.cls-3{fill:#cfe8db;}.cls-4,.cls-8,.cls-9{fill:none;stroke-miterlimit:10;}.cls-4,.cls-8{stroke:#65d38d;}.cls-4{stroke-width:3px;}.cls-5{fill:#71b393;}.cls-6{fill:#639c81;}.cls-7{fill:#acdac2;}.cls-9{stroke:#074d5b;}</style></defs><title>fast</title><g id="Layer_3" data-name="Layer 3"><g id="_Group_" data-name="&lt;Group&gt;"><path class="cls-1" d="M347,131.3a110.34,110.34,0,1,1-64.77,2c0,.3,0,.59,0,.89a32.28,32.28,0,0,0,5.07,17.42,91.42,91.42,0,1,0,55.79-1.71,32.32,32.32,0,0,0,4-15.71C347.15,133.2,347.11,132.25,347,131.3Z"/><path class="cls-2" d="M207.34,237.67a110.41,110.41,0,0,1,74.73-104.49c0,.3,0,.59,0,.89a32.28,32.28,0,0,0,5.07,17.42,91.44,91.44,0,0,0,5.39,174.07l-4.24,18.5A110.4,110.4,0,0,1,207.34,237.67Z"/><path class="cls-3" d="M343.1,149.88a91.41,91.41,0,1,1-55.79,1.71,32.46,32.46,0,0,0,55.79-1.71Z"/><path class="cls-4" d="M344.06,150.1c-5.53,10-17.89,16.75-30.11,16.75-11.52,0-23.63-6-29.39-15"/><path class="cls-4" d="M342.35,150.1a91.41,91.41,0,1,1-55.79,1.71"/></g><polygon class="cls-2" points="243.98 244.91 139.43 314.97 121.22 317.11 186.25 319.81 243.98 244.91"/><polygon class="cls-2" points="240.3 246.36 99.67 300.6 138.64 302.13 106.99 310 162.71 310 240.3 246.36"/><polygon class="cls-5" points="243.98 241.41 102.55 264.88 86.83 276.73 127.66 284.05 243.98 241.41"/><polygon class="cls-2" points="90.91 109.69 152.62 148.79 265.32 197.45 270.74 181.51 195.49 128.16 124.54 118.96 90.91 109.69"/><path class="cls-2" d="M268.95,191s-192-65.89-193-65.55,53.23,63.32,53.23,63.32L67.67,149.89l74.93,61L25.36,205.36c-1.32-1.41,210.32,43.08,211.47,42.28s12.14-38,12.14-38Z"/><polygon class="cls-2" points="280 180.41 259.2 94.03 78.36 46.89 98.69 75.91 146.1 100.14 265.52 187.1 280 180.41"/><polygon class="cls-6" points="83.68 82.16 222.57 111.78 272.56 166.06 266.81 179.15 197.8 126.57 98.22 107.01 83.68 82.16"/><polygon class="cls-5" points="243.47 212.29 161.25 180.97 102.91 179.15 50.82 191.77 107.09 206.74 243.98 237.25 243.47 212.29"/><path class="cls-5" d="M244,239l-131.49-11.5-39,9.73s33,22.91,33.22,21.57S244,239,244,239Z"/><polygon class="cls-7" points="86.83 216.09 155.35 153.57 258.13 201.05 247.67 214.68 162.94 177.92 86.83 216.09"/><polygon class="cls-7" points="243.98 237.25 92.26 239.5 158.46 256.42 116.63 280.39 243.98 237.25"/><polygon class="cls-7" points="240.3 241.41 143.75 277.1 112.49 291.67 148.81 300.6 240.3 241.41"/><polygon class="cls-7" points="235.01 249.24 141.45 310 179.18 302.48 235.01 249.24"/><path class="cls-7" d="M235,264.88s-81,53.94-82.7,54.93-31.09,0-31.09,0l33.1,12.75Z"/><polygon class="cls-7" points="235.01 271 172.8 325.04 158.92 332.56 179.18 330.68 196.97 314.7 181.45 337.26 165.44 337.26 194.78 343.37 216.85 300.6 210.42 326.45 202.6 334.91 215.47 332.56 235.01 271"/><polygon class="cls-2" points="240.3 258.82 150.41 336.63 182.6 332.56 240.3 258.82"/><polygon class="cls-6" points="197.2 130.03 269.46 185.28 168.12 151.91 197.2 130.03"/><polygon class="cls-7" points="197.8 126.57 222.57 111.78 272.56 166.06 266.81 179.15 197.8 126.57"/><polygon class="cls-7" points="24.28 107.32 91.14 153.99 25.88 121.32 24.28 107.32"/><polygon class="cls-6" points="111.99 10.4 147.4 46.89 100.58 24.82 111.99 10.4"/><polygon class="cls-5" points="52.94 289.6 103.79 289.96 55.21 307.84 52.94 289.6"/><polygon class="cls-6" points="155.35 153.57 162.94 177.92 86.83 216.09 155.35 153.57"/><polygon class="cls-7" points="161.25 180.97 131.14 212.1 50.82 191.77 102.91 179.15 161.25 180.97"/><g id="_Group_2" data-name="&lt;Group&gt;"><path class="cls-3" d="M341.61,150.88a91.41,91.41,0,1,1-55.79,1.71,32.46,32.46,0,0,0,55.79-1.71Z"/><path class="cls-7" d="M342.36,149.88a91.43,91.43,0,0,1-49,176.16l29.39-160.61A32.52,32.52,0,0,0,342.36,149.88Z"/><path class="cls-8" d="M322.74,165.43a32.52,32.52,0,0,0,19.62-15.55,91.41,91.41,0,1,1-55.79,1.71,32.51,32.51,0,0,0,36.17,13.84Z"/><path class="cls-4" d="M344.32,150.88c-5.53,10-17.89,16.75-30.11,16.75-11.52,0-23.63-6-29.39-15"/><path class="cls-4" d="M342.61,150.88a91.41,91.41,0,1,1-55.79,1.71"/></g><circle class="cls-1" cx="316.88" cy="241.93" r="18.38"/><path class="cls-1" d="M346.3,235.37s13,5.22,13,6.82-13.16,6.57-13.16,6.57L333,255.33v-.19a18.38,18.38,0,0,0,.26-26.16v-.44Z"/><line class="cls-9" x1="316.88" y1="199.44" x2="316.88" y2="220.93"/><path class="cls-1" d="M347.15,99.21H280.61a12,12,0,0,0-12,12v5.26a12,12,0,0,0,12,12H301c.11,1.55.37,5.41.63,11.44.43,10.13-2.3,15.2,11.92,15.2,15.6,0,12.15-6.34,12.44-14.15.24-6.48.67-10.82.9-12.49h20.22a12,12,0,0,0,12-12v-5.26A12,12,0,0,0,347.15,99.21Z"/><line class="cls-9" x1="316.88" y1="176.63" x2="316.88" y2="185.73"/><line class="cls-9" x1="316.88" y1="309.87" x2="316.88" y2="318.97"/><line class="cls-9" x1="245.31" y1="241.93" x2="236.22" y2="241.93"/><line class="cls-9" x1="261.94" y1="285.69" x2="254.07" y2="290.24"/><line class="cls-9" x1="366.95" y1="287.01" x2="373.87" y2="292.92"/><line class="cls-9" x1="261.47" y1="201.42" x2="254.55" y2="195.52"/><line class="cls-9" x1="362.09" y1="198.7" x2="369.43" y2="193.34"/><line class="cls-9" x1="398.13" y1="241.93" x2="389.03" y2="241.93"/><polygon class="cls-7" points="454.57 280.39 484.58 282.36 504.51 297.72 454.57 280.39"/><polygon class="cls-6" points="454.57 220.94 517.81 233.35 506 243.2 454.57 220.94"/><polygon class="cls-6" points="421.34 321.43 484.58 340.92 472.77 343.69 421.34 321.43"/><polygon class="cls-2" points="301.7 128.52 326.12 128.52 325.59 129.77 302.73 129.77 301.7 128.52"/><path class="cls-2" d="M319.92,129.42l-.3,18.81-4.12,4.12,6.9-.28a3.76,3.76,0,0,0,2.75-2.78c.4-2.24.42-20,.42-20Z"/><path class="cls-6" d="M301.7,100.13h44.5s7.82,2.79,8.39,4.68a13.63,13.63,0,0,1,0,8.5,15.36,15.36,0,0,0-10.08-9.62C341.37,102.79,301.7,100.13,301.7,100.13Z"/></g></svg>